<svg width="24" height="25" viewBox="0 0 24 25" fill="none" xmlns="http://www.w3.org/2000/svg">
<g clip-path="url(#clip0_3387_13679)">
<path d="M12 2.75C6.47 2.75 2 7.22 2 12.75C2 18.28 6.47 22.75 12 22.75C17.53 22.75 22 18.28 22 12.75C22 7.22 17.53 2.75 12 2.75ZM16.3 17.05C15.91 17.44 15.28 17.44 14.89 17.05L12 14.16L9.11 17.05C8.72 17.44 8.09 17.44 7.7 17.05C7.31 16.66 7.31 16.03 7.7 15.64L10.59 12.75L7.7 9.86C7.31 9.47 7.31 8.84 7.7 8.45C8.09 8.06 8.72 8.06 9.11 8.45L12 11.34L14.89 8.45C15.28 8.06 15.91 8.06 16.3 8.45C16.69 8.84 16.69 9.47 16.3 9.86L13.41 12.75L16.3 15.64C16.68 16.02 16.68 16.66 16.3 17.05Z" fill="#171717"/>
</g>
<defs>
<clipPath id="clip0_3387_13679">
<rect width="24" height="24" fill="white" transform="translate(0 0.75)"/>
</clipPath>
</defs>
</svg>
