<svg width="34" height="34" viewBox="0 0 34 34" fill="none" xmlns="http://www.w3.org/2000/svg">
<path fill-rule="evenodd" clip-rule="evenodd" d="M8.4987 2.83301H25.4987C28.6283 2.83301 31.1654 5.37006 31.1654 8.49967V25.4997C31.1654 28.6293 28.6283 31.1663 25.4987 31.1663H8.4987C5.36908 31.1663 2.83203 28.6293 2.83203 25.4997V8.49967C2.83203 5.37006 5.36908 2.83301 8.4987 2.83301ZM21.9287 21.9297C22.343 21.5148 22.343 20.8428 21.9287 20.428L18.5004 16.9997L21.9287 13.5713C22.3188 13.1527 22.3073 12.5003 21.9027 12.0957C21.498 11.6911 20.8457 11.6796 20.427 12.0697L16.9987 15.498L13.5704 12.0697C13.1517 11.6796 12.4993 11.6911 12.0947 12.0957C11.6901 12.5003 11.6786 13.1527 12.0687 13.5713L15.497 16.9997L12.0687 20.428C11.6544 20.8428 11.6544 21.5148 12.0687 21.9297C12.2711 22.124 12.539 22.2352 12.8195 22.2413C13.1006 22.2381 13.3696 22.1264 13.5704 21.9297L16.9987 18.5013L20.427 21.9297C20.6278 22.1264 20.8968 22.2381 21.1779 22.2413C21.4584 22.2352 21.7263 22.124 21.9287 21.9297Z" fill="white"/>
</svg>
