<svg  viewBox="0 0 25 24" fill="none" xmlns="http://www.w3.org/2000/svg">
<path fill-rule="evenodd" clip-rule="evenodd" d="M7.79655 15.2709L8.52716 11.8609C8.63352 11.387 8.87311 10.9534 9.21773 10.6109L15.8933 4.00091C16.5702 3.31188 17.4894 2.91369 18.4554 2.89091C19.184 2.88047 19.8866 3.16128 20.4071 3.67091C21.5442 5.01337 21.3974 7.01813 20.0768 8.18091L13.4012 14.8509C13.0585 15.1952 12.6244 15.4346 12.1502 15.5409L8.73733 16.2709H8.54717C8.29767 16.2804 8.05937 16.167 7.90957 15.9675C7.75976 15.7679 7.71752 15.5076 7.79655 15.2709ZM10.2786 11.6809C10.1384 11.8167 10.041 11.9905 9.99838 12.1809L9.50797 14.5109L11.8399 14.0109C12.0305 13.9683 12.2044 13.871 12.3403 13.7309L19.0159 7.06091C19.7472 6.47593 19.8923 5.42138 19.3462 4.66091C19.107 4.43261 18.786 4.31008 18.4554 4.32091C17.8855 4.34377 17.347 4.58771 16.9542 5.00091L10.2786 11.6809Z" fill="black"/>
<path d="M19.9267 10.9309C19.5144 10.9363 19.1814 11.2689 19.176 11.6809V17.3709C19.1895 18.1752 18.8791 18.9512 18.3145 19.5246C17.75 20.0981 16.9786 20.421 16.1735 20.4209H6.63558C4.97156 20.3883 3.6382 19.0338 3.63308 17.3709V7.88091C3.6604 6.216 5.0191 4.88068 6.68562 4.88091H12.3804C12.7949 4.88091 13.131 4.54512 13.131 4.13091C13.131 3.71669 12.7949 3.38091 12.3804 3.38091H6.63558C4.14 3.38076 2.10921 5.38756 2.08179 7.88091V17.3709C2.08179 19.8838 4.12059 21.9209 6.63558 21.9209H16.1335C18.6446 21.9154 20.6773 19.8799 20.6773 17.3709V11.6809C20.6719 11.2689 20.339 10.9363 19.9267 10.9309Z" fill="#171717"/>
</svg>
