<svg width="24" height="25" viewBox="0 0 24 25" fill="none" xmlns="http://www.w3.org/2000/svg">
<g clip-path="url(#clip0_3410_10793)">
<path d="M12 4.75C7 4.75 2.73 7.86 1 12.25C2.73 16.64 7 19.75 12 19.75C17 19.75 21.27 16.64 23 12.25C21.27 7.86 17 4.75 12 4.75ZM12 17.25C9.24 17.25 7 15.01 7 12.25C7 9.49 9.24 7.25 12 7.25C14.76 7.25 17 9.49 17 12.25C17 15.01 14.76 17.25 12 17.25ZM12 9.25C10.34 9.25 9 10.59 9 12.25C9 13.91 10.34 15.25 12 15.25C13.66 15.25 15 13.91 15 12.25C15 10.59 13.66 9.25 12 9.25Z" fill="#171717"/>
</g>
<defs>
<clipPath id="clip0_3410_10793">
<rect width="24" height="24" fill="white" transform="translate(0 0.75)"/>
</clipPath>
</defs>
</svg>
