<svg width="24" height="25" viewBox="0 0 24 25" fill="none" xmlns="http://www.w3.org/2000/svg">
<g clip-path="url(#clip0_3410_15861)">
<path d="M12 7.24969C14.76 7.24969 17 9.48969 17 12.2497C17 12.7597 16.9 13.2497 16.76 13.7097L19.82 16.7697C21.21 15.5397 22.31 13.9997 23 12.2397C21.27 7.85969 17 4.74969 12 4.74969C10.73 4.74969 9.51 4.94969 8.36 5.31969L10.53 7.48969C11 7.34969 11.49 7.24969 12 7.24969ZM2.71 3.90969C2.32 4.29969 2.32 4.92969 2.71 5.31969L4.68 7.28969C3.06 8.57969 1.77 10.2797 1 12.2497C2.73 16.6397 7 19.7497 12 19.7497C13.52 19.7497 14.97 19.4497 16.31 18.9297L19.03 21.6497C19.42 22.0397 20.05 22.0397 20.44 21.6497C20.83 21.2597 20.83 20.6297 20.44 20.2397L4.13 3.90969C3.74 3.51969 3.1 3.51969 2.71 3.90969ZM12 17.2497C9.24 17.2497 7 15.0097 7 12.2497C7 11.4797 7.18 10.7497 7.49 10.1097L9.06 11.6797C9.03 11.8597 9 12.0497 9 12.2497C9 13.9097 10.34 15.2497 12 15.2497C12.2 15.2497 12.38 15.2197 12.57 15.1797L14.14 16.7497C13.49 17.0697 12.77 17.2497 12 17.2497ZM14.97 11.9197C14.82 10.5197 13.72 9.42969 12.33 9.27969L14.97 11.9197Z" fill="#171717"/>
</g>
<defs>
<clipPath id="clip0_3410_15861">
<rect width="24" height="24" fill="white" transform="translate(0 0.75)"/>
</clipPath>
</defs>
</svg>
