<svg width="24" height="25" viewBox="0 0 24 25" fill="none" xmlns="http://www.w3.org/2000/svg">
<path fill-rule="evenodd" clip-rule="evenodd" d="M20.16 12.9437C20.16 12.341 20.1059 11.7614 20.0055 11.2051H12V14.493H16.5746C16.3775 15.5555 15.7786 16.4558 14.8784 17.0585V19.1912H17.6255C19.2327 17.7115 20.16 15.5324 20.16 12.9437Z" fill="#4285F4"/>
<path fill-rule="evenodd" clip-rule="evenodd" d="M11.9983 21.2502C14.2933 21.2502 16.2174 20.4891 17.6237 19.1909L14.8767 17.0582C14.1155 17.5682 13.1419 17.8696 11.9983 17.8696C9.7844 17.8696 7.91053 16.3743 7.24212 14.3652H4.40234V16.5675C5.80098 19.3455 8.67553 21.2502 11.9983 21.2502Z" fill="#34A853"/>
<path fill-rule="evenodd" clip-rule="evenodd" d="M7.24387 14.3659C7.07387 13.8559 6.97728 13.3111 6.97728 12.7509C6.97728 12.1906 7.07387 11.6459 7.24387 11.1359V8.93359H4.40409C3.82841 10.0811 3.5 11.3793 3.5 12.7509C3.5 14.1225 3.82841 15.4206 4.40409 16.5682L7.24387 14.3659Z" fill="#FBBC05"/>
<path fill-rule="evenodd" clip-rule="evenodd" d="M11.9983 7.63069C13.2462 7.63069 14.3667 8.05955 15.2476 8.90183L17.6855 6.46387C16.2135 5.09227 14.2894 4.25 11.9983 4.25C8.67553 4.25 5.80098 6.15478 4.40234 8.93273L7.24212 11.135C7.91053 9.12592 9.7844 7.63069 11.9983 7.63069Z" fill="#EA4335"/>
</svg>
